<mxfile host="app.diagrams.net" agent="Mozilla/5.0 (Windows NT 10.0; Win64; x64) AppleWebKit/537.36 (KHTML, like Gecko) Chrome/140.0.0.0 Safari/537.36" version="28.2.0">
  <diagram name="Page-1" id="ayT21jzHC10ioKzgWo-S">
    <mxGraphModel dx="1892" dy="561" grid="1" gridSize="10" guides="1" tooltips="1" connect="1" arrows="1" fold="1" page="1" pageScale="1" pageWidth="850" pageHeight="1100" math="0" shadow="0">
      <root>
        <mxCell id="0" />
        <mxCell id="1" parent="0" />
        <mxCell id="veSr0kLxSIWtucfGjdzW-1" value="" style="rounded=0;whiteSpace=wrap;html=1;fillColor=#f8cecc;strokeColor=#b85450;" vertex="1" parent="1">
          <mxGeometry x="320" y="80" width="360" height="280" as="geometry" />
        </mxCell>
        <mxCell id="veSr0kLxSIWtucfGjdzW-8" style="edgeStyle=orthogonalEdgeStyle;rounded=0;orthogonalLoop=1;jettySize=auto;html=1;entryX=0;entryY=0.5;entryDx=0;entryDy=0;" edge="1" parent="1" source="veSr0kLxSIWtucfGjdzW-2" target="veSr0kLxSIWtucfGjdzW-5">
          <mxGeometry relative="1" as="geometry">
            <Array as="points">
              <mxPoint x="460" y="213" />
              <mxPoint x="460" y="320" />
            </Array>
          </mxGeometry>
        </mxCell>
        <mxCell id="veSr0kLxSIWtucfGjdzW-13" style="edgeStyle=orthogonalEdgeStyle;rounded=0;orthogonalLoop=1;jettySize=auto;html=1;entryX=1;entryY=0.25;entryDx=0;entryDy=0;" edge="1" parent="1" source="veSr0kLxSIWtucfGjdzW-2" target="veSr0kLxSIWtucfGjdzW-11">
          <mxGeometry relative="1" as="geometry" />
        </mxCell>
        <mxCell id="veSr0kLxSIWtucfGjdzW-2" value="" style="fontColor=#0066CC;verticalAlign=top;verticalLabelPosition=bottom;labelPosition=center;align=center;html=1;outlineConnect=0;fillColor=#CCCCCC;strokeColor=#6881B3;gradientColor=none;gradientDirection=north;strokeWidth=2;shape=mxgraph.networks.wireless_modem;" vertex="1" parent="1">
          <mxGeometry x="260" y="170" width="100" height="85" as="geometry" />
        </mxCell>
        <mxCell id="veSr0kLxSIWtucfGjdzW-3" value="" style="html=1;verticalLabelPosition=bottom;align=center;labelBackgroundColor=#ffffff;verticalAlign=top;strokeWidth=2;strokeColor=#0080F0;shadow=0;dashed=0;shape=mxgraph.ios7.icons.smartphone;" vertex="1" parent="1">
          <mxGeometry x="560" y="100" width="30" height="50" as="geometry" />
        </mxCell>
        <mxCell id="veSr0kLxSIWtucfGjdzW-4" value="" style="outlineConnect=0;dashed=0;verticalLabelPosition=bottom;verticalAlign=top;align=center;html=1;shape=mxgraph.aws3.fire_tv;fillColor=#5294CF;gradientColor=none;" vertex="1" parent="1">
          <mxGeometry x="537.5" y="184.75" width="75" height="55.5" as="geometry" />
        </mxCell>
        <mxCell id="veSr0kLxSIWtucfGjdzW-5" value="" style="image;html=1;image=img/lib/clip_art/computers/Laptop_128x128.png" vertex="1" parent="1">
          <mxGeometry x="540" y="280" width="80" height="80" as="geometry" />
        </mxCell>
        <mxCell id="veSr0kLxSIWtucfGjdzW-6" style="edgeStyle=orthogonalEdgeStyle;rounded=0;orthogonalLoop=1;jettySize=auto;html=1;entryX=-0.013;entryY=0.58;entryDx=0;entryDy=0;entryPerimeter=0;" edge="1" parent="1" source="veSr0kLxSIWtucfGjdzW-2" target="veSr0kLxSIWtucfGjdzW-3">
          <mxGeometry relative="1" as="geometry" />
        </mxCell>
        <mxCell id="veSr0kLxSIWtucfGjdzW-7" style="edgeStyle=orthogonalEdgeStyle;rounded=0;orthogonalLoop=1;jettySize=auto;html=1;entryX=0;entryY=0.5;entryDx=0;entryDy=0;entryPerimeter=0;" edge="1" parent="1" source="veSr0kLxSIWtucfGjdzW-2" target="veSr0kLxSIWtucfGjdzW-4">
          <mxGeometry relative="1" as="geometry" />
        </mxCell>
        <mxCell id="veSr0kLxSIWtucfGjdzW-9" value="&lt;b&gt;Internal/Private&lt;/b&gt;" style="text;html=1;align=center;verticalAlign=middle;resizable=0;points=[];autosize=1;strokeColor=none;fillColor=none;" vertex="1" parent="1">
          <mxGeometry x="315" y="268" width="110" height="30" as="geometry" />
        </mxCell>
        <mxCell id="veSr0kLxSIWtucfGjdzW-10" value="&lt;b&gt;External/Public&lt;/b&gt;" style="text;html=1;align=center;verticalAlign=middle;resizable=0;points=[];autosize=1;strokeColor=none;fillColor=none;" vertex="1" parent="1">
          <mxGeometry x="190" y="280" width="110" height="30" as="geometry" />
        </mxCell>
        <mxCell id="veSr0kLxSIWtucfGjdzW-11" value="&lt;b&gt;ISP&lt;/b&gt;&lt;div&gt;&lt;b&gt;BSNL&lt;br&gt;Airtel&lt;/b&gt;&lt;/div&gt;&lt;div&gt;&lt;b&gt;Jio&lt;/b&gt;&lt;/div&gt;" style="whiteSpace=wrap;html=1;aspect=fixed;fillColor=#dae8fc;strokeColor=#6c8ebf;" vertex="1" parent="1">
          <mxGeometry x="-20" y="180.25" width="129.75" height="129.75" as="geometry" />
        </mxCell>
        <mxCell id="veSr0kLxSIWtucfGjdzW-14" value="&lt;b&gt;192.168.0.108&lt;/b&gt;" style="text;html=1;align=center;verticalAlign=middle;resizable=0;points=[];autosize=1;strokeColor=none;fillColor=none;" vertex="1" parent="1">
          <mxGeometry x="580" y="268" width="100" height="30" as="geometry" />
        </mxCell>
        <mxCell id="veSr0kLxSIWtucfGjdzW-15" value="&lt;b&gt;192.168.0.1&lt;/b&gt;" style="text;html=1;align=center;verticalAlign=middle;resizable=0;points=[];autosize=1;strokeColor=none;fillColor=none;" vertex="1" parent="1">
          <mxGeometry x="350" y="225" width="90" height="30" as="geometry" />
        </mxCell>
        <mxCell id="veSr0kLxSIWtucfGjdzW-16" value="&lt;b&gt;49.204.160.153&amp;nbsp;&lt;/b&gt;" style="text;html=1;align=center;verticalAlign=middle;resizable=0;points=[];autosize=1;strokeColor=none;fillColor=none;" vertex="1" parent="1">
          <mxGeometry x="180" y="170" width="110" height="30" as="geometry" />
        </mxCell>
        <mxCell id="veSr0kLxSIWtucfGjdzW-17" value="&lt;b&gt;192.168.0.109&lt;/b&gt;" style="text;html=1;align=center;verticalAlign=middle;resizable=0;points=[];autosize=1;strokeColor=none;fillColor=none;" vertex="1" parent="1">
          <mxGeometry x="580" y="130" width="100" height="30" as="geometry" />
        </mxCell>
        <mxCell id="veSr0kLxSIWtucfGjdzW-18" value="&lt;b&gt;1. Secuirty&lt;/b&gt;&lt;div&gt;&lt;b&gt;2. Speed&lt;/b&gt;&lt;/div&gt;" style="text;html=1;align=left;verticalAlign=middle;resizable=0;points=[];autosize=1;strokeColor=none;fillColor=none;" vertex="1" parent="1">
          <mxGeometry x="680" y="200.25" width="80" height="40" as="geometry" />
        </mxCell>
        <mxCell id="veSr0kLxSIWtucfGjdzW-19" value="&lt;b&gt;Home N/W&lt;/b&gt;" style="text;html=1;align=center;verticalAlign=middle;resizable=0;points=[];autosize=1;strokeColor=none;fillColor=none;" vertex="1" parent="1">
          <mxGeometry x="330" y="80" width="80" height="30" as="geometry" />
        </mxCell>
        <mxCell id="veSr0kLxSIWtucfGjdzW-21" value="" style="shape=image;html=1;verticalAlign=top;verticalLabelPosition=bottom;labelBackgroundColor=#ffffff;imageAspect=0;aspect=fixed;image=https://icons.diagrams.net/icon-cache1/Computer_Hardware_Cute_Style_vol_2-2891/signal__device__technology__radar__satellite__antenna__tower-1230.svg" vertex="1" parent="1">
          <mxGeometry x="-390" y="146.38" width="187.25" height="187.25" as="geometry" />
        </mxCell>
        <mxCell id="veSr0kLxSIWtucfGjdzW-22" value="" style="endArrow=classic;html=1;rounded=0;edgeStyle=orthogonalEdgeStyle;" edge="1" parent="1" source="veSr0kLxSIWtucfGjdzW-21">
          <mxGeometry width="50" height="50" relative="1" as="geometry">
            <mxPoint x="-50" y="320" as="sourcePoint" />
            <mxPoint x="-30" y="240" as="targetPoint" />
          </mxGeometry>
        </mxCell>
        <mxCell id="veSr0kLxSIWtucfGjdzW-23" value="&lt;b&gt;Airtel&lt;/b&gt;" style="text;html=1;align=center;verticalAlign=middle;resizable=0;points=[];autosize=1;strokeColor=none;fillColor=none;" vertex="1" parent="1">
          <mxGeometry x="-320" y="333.63" width="50" height="30" as="geometry" />
        </mxCell>
      </root>
    </mxGraphModel>
  </diagram>
</mxfile>
